<?xml version="1.0" encoding="utf-8"?>
<!-- Generator: Adobe Illustrator 25.2.0, SVG Export Plug-In . SVG Version: 6.00 Build 0)  -->
<svg version="1.1" id="Layer_1" xmlns="http://www.w3.org/2000/svg" xmlns:xlink="http://www.w3.org/1999/xlink" x="0px" y="0px"
	 viewBox="0 0 233.2 250.16" style="enable-background:new 0 0 233.2 250.16;" xml:space="preserve">
<style type="text/css">
	.st0{opacity:0.53;fill:#1B1464;enable-background:new    ;}
	.st1{fill:#333333;}
	.st2{fill:#8DC044;}
	.st3{fill:#FC153B;}
	.st4{fill:#FFFFFF;}
	.st5{fill:#E6E6E6;}
	.st6{fill:none;stroke:#CCCCCC;stroke-width:2;stroke-miterlimit:10;}
</style>
<g id="Group_119" transform="translate(-9513 -2572.51)">
	<path id="Path_243" class="st0" d="M9708.7,2737.86c-0.9-0.51-1.85-0.93-2.83-1.24l-28.59-10.5c2.82-2.76,3.15-6.16-0.32-9.76
		c-5.6-5.82-15.17-6.03-23.93-3.12c-1.73,0.56-3.41,1.29-5.01,2.16l-22.61-8.28c4.25-2.96,5.39-6.89,1.34-11.1
		c-5.6-5.82-15.17-6.03-23.93-3.12c-2.48,0.76-4.82,1.91-6.95,3.4l-7.16-2.62l-4.17,1.51l-7.49,2.72l-3.32,1.2l0,0l-32.64,11.84
		c-4.09,1.49-4.77,3.77-4.81,5.01c-0.07,0.29-0.04,0.59,0.08,0.86l12.82,17.62c1.92,4.69,7,8.99,13.55,11.47l66.47,38.85l2.93,1.11
		l5.15,1.95c5.78,2.23,11.98,3.17,18.16,2.76l36.95-2.94l6.94,0.85c0.03,0,5.22,0.69,6.56,0.8c1.43,0.2,2.88,0.07,4.25-0.38
		l2.16-0.78c0,0,12.78,1.13,15.46-5.61C9729.41,2778.37,9711.65,2739.59,9708.7,2737.86z M9676.1,2745.47L9676.1,2745.47l2.17,0.1
		l0,0L9676.1,2745.47z M9630.5,2747.82l-1.27,0.07l-1.28-0.47C9628.77,2747.72,9629.63,2747.86,9630.5,2747.82L9630.5,2747.82z"/>
	<g id="Group_118">
		<path id="Path_244" class="st1" d="M9698.59,2722.87c0,0,6.94,11.15,0,20.25c-4.26,5.58-58.69,26.1-62.07,24.94
			c-7.12-2.44-12.45-15.26,2.32-22.46C9644.12,2743.03,9698.59,2722.87,9698.59,2722.87z"/>
		<path id="Path_245" class="st2" d="M9530.95,2633.5v56.88c0,1.42,0.7,2.74,1.87,3.54l99.31,67.81c1.96,1.34,4.63,0.83,5.96-1.12
			c0.49-0.71,0.75-1.56,0.75-2.42v-12.31c5.23-0.43,9.84,4.49,9.84,4.49s44.23-15.22,44.46-20.3s5.44-6.62,5.44-6.62v-3.42
			c0-1.59-0.49-3.14-1.39-4.45l-7.89-11.34l-12.59-38.25c-1.99-6.04-5.95-11.23-11.25-14.73l-66.57-44.07
			c-5.85-3.87-13.24-4.58-19.72-1.89l-43.23,17.98c-0.41,0.17-0.77,0.43-1.07,0.76C9533.41,2625.29,9530.95,2628.15,9530.95,2633.5z
			 M9638.7,2742.86l-0.08,0.03c-0.08-0.25-0.18-0.5-0.3-0.73L9638.7,2742.86z M9631.45,2729.46L9631.45,2729.46l1.71,3.16
			L9631.45,2729.46z M9612.77,2681.44l1.12,0.77l13.09,35.34l-12.62-34.06C9614.06,2682.66,9613.51,2681.94,9612.77,2681.44
			L9612.77,2681.44z"/>
		<path id="Path_246" class="st3" d="M9698.59,2717.59"/>
		<path id="Path_247" class="st4" d="M9614.88,2698.99c0,0-3.34-12.9-6.2-15.96c-1.99-2.14-8.55-6.12-11.96-7.79
			c-3.25-1.6-3.11,19.01-3.11,22.82c0,6,13.73,14.86,13.73,14.86s4.16,5.04,5.4-4.01
			C9614.26,2697.82,9614.88,2698.99,9614.88,2698.99z"/>
		<path id="Path_248" class="st1" d="M9598.24,2704.92c0,0,0-6.99,0.7-7.69s4.89-0.7,6.99,0c1.38,0.46,1.55,3.64,1.5,5.77h0.01
			c0,0,0,6.99-0.7,7.69s-4.89,0.7-6.99,0C9598.37,2710.23,9598.2,2707.05,9598.24,2704.92L9598.24,2704.92z"/>
		<path id="Path_249" class="st1" d="M9606.94,2708.89c1.74,1.16,5.8,0,5.8,0v-2.32c-2.32,1.16-5.8,0-5.8,0V2708.89z"/>
		<path id="Path_250" class="st1" d="M9607.34,2712.91c5.98-2.85,6.38-14.5,6.96-15.08s7.54,22.04,6.38,22.62
			S9606.17,2713.46,9607.34,2712.91z"/>
		<path id="Path_251" class="st1" d="M9634.83,2767.26l-28.18-19.32l-75.7-52.08v-5.46l103.88,72.25L9634.83,2767.26z"/>
		<path id="Path_252" class="st1" d="M9638.84,2749.73l-107.89-73.49v10.67l107.89,74.19V2749.73z"/>
		<path id="Path_253" class="st1" d="M9582.58,2738.54c0.32,11.21,4.75,20.18,14.2,19.91s13.95-9.49,13.63-20.69
			s-5.33-20.16-14.78-19.89S9582.27,2727.34,9582.58,2738.54z"/>
		<path id="Path_254" class="st5" d="M9586.35,2738.47c0.18,6.56,2.61,11.82,5.41,11.74s4.34-5.45,4.16-12.01
			s-2.03-11.84-4.83-11.76S9586.17,2731.91,9586.35,2738.47z"/>
		<path id="Path_255" class="st1" d="M9536.18,2710.12c0.32,11.21,4.75,20.18,14.2,19.91s13.95-9.49,13.63-20.69
			s-5.33-20.16-14.78-19.89S9535.86,2698.91,9536.18,2710.12z"/>
		<path id="Path_256" class="st5" d="M9539.95,2710.05c0.18,6.56,2.61,11.82,5.41,11.74s4.34-5.45,4.16-12.01
			s-2.03-11.84-4.83-11.76S9539.76,2703.49,9539.95,2710.05z"/>
		<path id="Path_257" class="st4" d="M9682.46,2702.55c0.84-0.3,1.3-1.21,1.03-2.06c-3.32-10.59-7.47-27.23-10.43-27.26
			c-2.67-0.03-39.2,12.46-49.31,15.94c-1.59,0.54-2.53,2.19-2.17,3.84c1.5,6.8,6.71,19.35,8.12,25.74c0.25,1.11,1.35,1.8,2.45,1.55
			c0.08-0.02,0.17-0.04,0.25-0.07L9682.46,2702.55z"/>
		<path id="Path_258" class="st4" d="M9632.07,2732.61c-0.09-0.74,0.44-1.42,1.18-1.51c0.27-0.03,0.55,0.02,0.79,0.14
			c3.89,1.97,8.04,3.39,12.33,4.22c10.01,2.09,3.32,9.49-0.98,8.87S9633.56,2744.89,9632.07,2732.61z"/>
		<g id="Group_117">
			<path id="Path_259" class="st4" d="M9693.52,2724.2c-2.83,2.65-11.9-0.17-5.66-6.88c2.09-2.21,3.93-4.64,5.5-7.25
				c0,0,3.1,4.34,3.83,5.51C9696.03,2718.11,9694.98,2722.83,9693.52,2724.2z"/>
		</g>
		<path id="Path_260" class="st6" d="M9655.49,2664.33c0,0-2.84-9.18-9.51-13.5s-57.7-38.97-57.7-38.97"/>
		<path id="Path_261" class="st6" d="M9640.54,2670.16c0,0-2.84-9.18-9.51-13.5s-57.7-38.97-57.7-38.97"/>
		<path id="Path_262" class="st6" d="M9625.24,2677.73c0,0-2.84-9.18-9.51-13.49s-57.7-38.97-57.7-38.97"/>
		<path id="Path_263" class="st1" d="M9685.71,2733.02l1.43-3.1c0.3-0.65,0.25-1.4-0.12-2.01l-4.3-7c-0.54-0.88-1.63-1.25-2.59-0.87
			l-27.81,10.77c-1.1,0.43-1.65,1.66-1.22,2.76c0.03,0.07,0.06,0.15,0.1,0.21l3.55,6.83c0.25,0.49,0.68,0.86,1.2,1.03l5.18,1.78
			c0.5,0.17,1.04,0.15,1.52-0.05l21.94-9.28C9685.09,2733.88,9685.49,2733.5,9685.71,2733.02z"/>
		<path id="Path_264" class="st4" d="M9592.35,2673.6l-1.62,20.71c-0.09,1.16-1.11,2.02-2.26,1.92c-0.31-0.03-0.62-0.12-0.89-0.28
			l-50.1-30.2c-0.64-0.38-1.03-1.06-1.03-1.8v-22.27c0-1.16,0.95-2.1,2.11-2.09c0.38,0,0.76,0.11,1.08,0.31l51.71,31.76
			C9592.02,2672.07,9592.41,2672.82,9592.35,2673.6z"/>
		
			<ellipse id="Ellipse_53" transform="matrix(0.957 -0.29 0.29 0.957 -376.605 2922.0332)" class="st4" cx="9670.91" cy="2731.72" rx="3.23" ry="1.61"/>
		<path id="Path_265" class="st1" d="M9668.23,2659.07l-27.63-40.67c-0.03-0.05-0.08-0.08-0.13-0.11l-0.51-0.24l26.09,40.58
			c0.09,0.15,0.05,0.34-0.09,0.44c-0.01,0-0.01,0.01-0.02,0.01l-0.91,0.49h2.94c0.17,0,0.32-0.14,0.32-0.32
			C9668.29,2659.18,9668.27,2659.12,9668.23,2659.07z"/>
	</g>
</g>
</svg>
